<mxfile host="app.diagrams.net" modified="2023-11-13T15:57:33.652Z" agent="Mozilla/5.0 (Windows NT 10.0; Win64; x64) AppleWebKit/537.36 (KHTML, like Gecko) Chrome/119.0.0.0 Safari/537.36" etag="s4oiQX8lxHIaOPfJ8Hou" version="22.1.0" type="device">
  <diagram name="Trang-1" id="gFDGEMxkwLV0Ie0h3CIQ">
    <mxGraphModel dx="794" dy="1623" grid="1" gridSize="10" guides="1" tooltips="1" connect="1" arrows="1" fold="1" page="1" pageScale="1" pageWidth="827" pageHeight="1169" math="0" shadow="0">
      <root>
        <mxCell id="0" />
        <mxCell id="1" parent="0" />
        <mxCell id="ntS3S_vRTbsPisqW7kcb-3" value="" style="edgeStyle=orthogonalEdgeStyle;rounded=0;orthogonalLoop=1;jettySize=auto;html=1;" edge="1" parent="1" source="ntS3S_vRTbsPisqW7kcb-1" target="ntS3S_vRTbsPisqW7kcb-2">
          <mxGeometry relative="1" as="geometry" />
        </mxCell>
        <mxCell id="ntS3S_vRTbsPisqW7kcb-1" value="start" style="ellipse;whiteSpace=wrap;html=1;" vertex="1" parent="1">
          <mxGeometry x="90" y="110" width="120" height="80" as="geometry" />
        </mxCell>
        <mxCell id="ntS3S_vRTbsPisqW7kcb-9" value="" style="edgeStyle=orthogonalEdgeStyle;rounded=0;orthogonalLoop=1;jettySize=auto;html=1;" edge="1" parent="1" source="ntS3S_vRTbsPisqW7kcb-2" target="ntS3S_vRTbsPisqW7kcb-8">
          <mxGeometry relative="1" as="geometry" />
        </mxCell>
        <mxCell id="ntS3S_vRTbsPisqW7kcb-13" value="" style="edgeStyle=orthogonalEdgeStyle;rounded=0;orthogonalLoop=1;jettySize=auto;html=1;" edge="1" parent="1" source="ntS3S_vRTbsPisqW7kcb-2" target="ntS3S_vRTbsPisqW7kcb-12">
          <mxGeometry relative="1" as="geometry" />
        </mxCell>
        <mxCell id="ntS3S_vRTbsPisqW7kcb-26" value="" style="edgeStyle=orthogonalEdgeStyle;rounded=0;orthogonalLoop=1;jettySize=auto;html=1;" edge="1" parent="1" source="ntS3S_vRTbsPisqW7kcb-2" target="ntS3S_vRTbsPisqW7kcb-25">
          <mxGeometry relative="1" as="geometry" />
        </mxCell>
        <mxCell id="ntS3S_vRTbsPisqW7kcb-2" value="int num1,num2" style="shape=parallelogram;perimeter=parallelogramPerimeter;whiteSpace=wrap;html=1;fixedSize=1;" vertex="1" parent="1">
          <mxGeometry x="290" y="120" width="120" height="60" as="geometry" />
        </mxCell>
        <mxCell id="ntS3S_vRTbsPisqW7kcb-7" value="" style="edgeStyle=orthogonalEdgeStyle;rounded=0;orthogonalLoop=1;jettySize=auto;html=1;" edge="1" parent="1" source="ntS3S_vRTbsPisqW7kcb-4" target="ntS3S_vRTbsPisqW7kcb-6">
          <mxGeometry relative="1" as="geometry" />
        </mxCell>
        <mxCell id="ntS3S_vRTbsPisqW7kcb-4" value="choice=1" style="whiteSpace=wrap;html=1;" vertex="1" parent="1">
          <mxGeometry x="80" y="270" width="120" height="60" as="geometry" />
        </mxCell>
        <mxCell id="ntS3S_vRTbsPisqW7kcb-50" value="" style="edgeStyle=orthogonalEdgeStyle;rounded=0;orthogonalLoop=1;jettySize=auto;html=1;" edge="1" parent="1" source="ntS3S_vRTbsPisqW7kcb-6" target="ntS3S_vRTbsPisqW7kcb-49">
          <mxGeometry relative="1" as="geometry" />
        </mxCell>
        <mxCell id="ntS3S_vRTbsPisqW7kcb-6" value="num1+num2" style="shape=parallelogram;perimeter=parallelogramPerimeter;whiteSpace=wrap;html=1;fixedSize=1;" vertex="1" parent="1">
          <mxGeometry x="80" y="410" width="120" height="60" as="geometry" />
        </mxCell>
        <mxCell id="ntS3S_vRTbsPisqW7kcb-11" value="" style="edgeStyle=orthogonalEdgeStyle;rounded=0;orthogonalLoop=1;jettySize=auto;html=1;" edge="1" parent="1" source="ntS3S_vRTbsPisqW7kcb-8" target="ntS3S_vRTbsPisqW7kcb-10">
          <mxGeometry relative="1" as="geometry" />
        </mxCell>
        <mxCell id="ntS3S_vRTbsPisqW7kcb-8" value="choice=2" style="whiteSpace=wrap;html=1;" vertex="1" parent="1">
          <mxGeometry x="490" y="120" width="120" height="60" as="geometry" />
        </mxCell>
        <mxCell id="ntS3S_vRTbsPisqW7kcb-54" value="" style="edgeStyle=orthogonalEdgeStyle;rounded=0;orthogonalLoop=1;jettySize=auto;html=1;" edge="1" parent="1" source="ntS3S_vRTbsPisqW7kcb-10" target="ntS3S_vRTbsPisqW7kcb-51">
          <mxGeometry relative="1" as="geometry" />
        </mxCell>
        <mxCell id="ntS3S_vRTbsPisqW7kcb-10" value="num1-num2" style="shape=parallelogram;perimeter=parallelogramPerimeter;whiteSpace=wrap;html=1;fixedSize=1;" vertex="1" parent="1">
          <mxGeometry x="490" y="260" width="120" height="60" as="geometry" />
        </mxCell>
        <mxCell id="ntS3S_vRTbsPisqW7kcb-15" value="" style="edgeStyle=orthogonalEdgeStyle;rounded=0;orthogonalLoop=1;jettySize=auto;html=1;" edge="1" parent="1" source="ntS3S_vRTbsPisqW7kcb-12" target="ntS3S_vRTbsPisqW7kcb-14">
          <mxGeometry relative="1" as="geometry" />
        </mxCell>
        <mxCell id="ntS3S_vRTbsPisqW7kcb-12" value="choice=3" style="whiteSpace=wrap;html=1;" vertex="1" parent="1">
          <mxGeometry x="290" y="-20" width="120" height="60" as="geometry" />
        </mxCell>
        <mxCell id="ntS3S_vRTbsPisqW7kcb-46" value="" style="edgeStyle=orthogonalEdgeStyle;rounded=0;orthogonalLoop=1;jettySize=auto;html=1;" edge="1" parent="1" source="ntS3S_vRTbsPisqW7kcb-14" target="ntS3S_vRTbsPisqW7kcb-44">
          <mxGeometry relative="1" as="geometry" />
        </mxCell>
        <mxCell id="ntS3S_vRTbsPisqW7kcb-14" value="num1*num2" style="shape=parallelogram;perimeter=parallelogramPerimeter;whiteSpace=wrap;html=1;fixedSize=1;" vertex="1" parent="1">
          <mxGeometry x="290" y="-160" width="120" height="60" as="geometry" />
        </mxCell>
        <mxCell id="ntS3S_vRTbsPisqW7kcb-18" value="" style="edgeStyle=orthogonalEdgeStyle;rounded=0;orthogonalLoop=1;jettySize=auto;html=1;" edge="1" parent="1" source="ntS3S_vRTbsPisqW7kcb-16" target="ntS3S_vRTbsPisqW7kcb-17">
          <mxGeometry relative="1" as="geometry" />
        </mxCell>
        <mxCell id="ntS3S_vRTbsPisqW7kcb-16" value="choice=4" style="rounded=0;whiteSpace=wrap;html=1;" vertex="1" parent="1">
          <mxGeometry x="490" y="-20" width="120" height="60" as="geometry" />
        </mxCell>
        <mxCell id="ntS3S_vRTbsPisqW7kcb-17" value="(float)num1/num2" style="shape=parallelogram;perimeter=parallelogramPerimeter;whiteSpace=wrap;html=1;fixedSize=1;rounded=0;" vertex="1" parent="1">
          <mxGeometry x="490" y="-160" width="120" height="60" as="geometry" />
        </mxCell>
        <mxCell id="ntS3S_vRTbsPisqW7kcb-19" value="" style="endArrow=classic;html=1;rounded=0;entryX=0;entryY=0.5;entryDx=0;entryDy=0;exitX=0.75;exitY=0;exitDx=0;exitDy=0;" edge="1" parent="1" source="ntS3S_vRTbsPisqW7kcb-2" target="ntS3S_vRTbsPisqW7kcb-16">
          <mxGeometry width="50" height="50" relative="1" as="geometry">
            <mxPoint x="380" y="160" as="sourcePoint" />
            <mxPoint x="430" y="110" as="targetPoint" />
          </mxGeometry>
        </mxCell>
        <mxCell id="ntS3S_vRTbsPisqW7kcb-22" value="" style="edgeStyle=orthogonalEdgeStyle;rounded=0;orthogonalLoop=1;jettySize=auto;html=1;" edge="1" parent="1" source="ntS3S_vRTbsPisqW7kcb-20" target="ntS3S_vRTbsPisqW7kcb-21">
          <mxGeometry relative="1" as="geometry" />
        </mxCell>
        <mxCell id="ntS3S_vRTbsPisqW7kcb-20" value="choice=5" style="rounded=1;whiteSpace=wrap;html=1;" vertex="1" parent="1">
          <mxGeometry x="100" y="-20" width="120" height="60" as="geometry" />
        </mxCell>
        <mxCell id="ntS3S_vRTbsPisqW7kcb-21" value="num1%num2" style="shape=parallelogram;perimeter=parallelogramPerimeter;whiteSpace=wrap;html=1;fixedSize=1;rounded=1;" vertex="1" parent="1">
          <mxGeometry x="100" y="-160" width="120" height="60" as="geometry" />
        </mxCell>
        <mxCell id="ntS3S_vRTbsPisqW7kcb-23" value="" style="endArrow=classic;html=1;rounded=0;entryX=0.5;entryY=1;entryDx=0;entryDy=0;" edge="1" parent="1" source="ntS3S_vRTbsPisqW7kcb-2" target="ntS3S_vRTbsPisqW7kcb-20">
          <mxGeometry width="50" height="50" relative="1" as="geometry">
            <mxPoint x="380" y="60" as="sourcePoint" />
            <mxPoint x="430" y="10" as="targetPoint" />
          </mxGeometry>
        </mxCell>
        <mxCell id="ntS3S_vRTbsPisqW7kcb-24" value="" style="endArrow=classic;html=1;rounded=0;entryX=0.5;entryY=0;entryDx=0;entryDy=0;exitX=0.089;exitY=1.017;exitDx=0;exitDy=0;exitPerimeter=0;" edge="1" parent="1" source="ntS3S_vRTbsPisqW7kcb-2" target="ntS3S_vRTbsPisqW7kcb-4">
          <mxGeometry width="50" height="50" relative="1" as="geometry">
            <mxPoint x="380" y="360" as="sourcePoint" />
            <mxPoint x="430" y="310" as="targetPoint" />
          </mxGeometry>
        </mxCell>
        <mxCell id="ntS3S_vRTbsPisqW7kcb-28" value="" style="edgeStyle=orthogonalEdgeStyle;rounded=0;orthogonalLoop=1;jettySize=auto;html=1;" edge="1" parent="1" source="ntS3S_vRTbsPisqW7kcb-35" target="ntS3S_vRTbsPisqW7kcb-27">
          <mxGeometry relative="1" as="geometry" />
        </mxCell>
        <mxCell id="ntS3S_vRTbsPisqW7kcb-39" value="False" style="edgeLabel;html=1;align=center;verticalAlign=middle;resizable=0;points=[];" vertex="1" connectable="0" parent="ntS3S_vRTbsPisqW7kcb-28">
          <mxGeometry x="0.5244" y="3" relative="1" as="geometry">
            <mxPoint as="offset" />
          </mxGeometry>
        </mxCell>
        <mxCell id="ntS3S_vRTbsPisqW7kcb-25" value="choice=6" style="whiteSpace=wrap;html=1;" vertex="1" parent="1">
          <mxGeometry x="290" y="260" width="120" height="60" as="geometry" />
        </mxCell>
        <mxCell id="ntS3S_vRTbsPisqW7kcb-30" value="" style="edgeStyle=orthogonalEdgeStyle;rounded=0;orthogonalLoop=1;jettySize=auto;html=1;" edge="1" parent="1" source="ntS3S_vRTbsPisqW7kcb-27" target="ntS3S_vRTbsPisqW7kcb-29">
          <mxGeometry relative="1" as="geometry" />
        </mxCell>
        <mxCell id="ntS3S_vRTbsPisqW7kcb-31" value="True" style="edgeLabel;html=1;align=center;verticalAlign=middle;resizable=0;points=[];" vertex="1" connectable="0" parent="ntS3S_vRTbsPisqW7kcb-30">
          <mxGeometry x="-0.1111" y="1" relative="1" as="geometry">
            <mxPoint as="offset" />
          </mxGeometry>
        </mxCell>
        <mxCell id="ntS3S_vRTbsPisqW7kcb-33" value="" style="edgeStyle=orthogonalEdgeStyle;rounded=0;orthogonalLoop=1;jettySize=auto;html=1;" edge="1" parent="1" source="ntS3S_vRTbsPisqW7kcb-27" target="ntS3S_vRTbsPisqW7kcb-32">
          <mxGeometry relative="1" as="geometry" />
        </mxCell>
        <mxCell id="ntS3S_vRTbsPisqW7kcb-34" value="False" style="edgeLabel;html=1;align=center;verticalAlign=middle;resizable=0;points=[];" vertex="1" connectable="0" parent="ntS3S_vRTbsPisqW7kcb-33">
          <mxGeometry x="-0.1926" y="-1" relative="1" as="geometry">
            <mxPoint as="offset" />
          </mxGeometry>
        </mxCell>
        <mxCell id="ntS3S_vRTbsPisqW7kcb-27" value="num1&amp;gt;num2" style="rhombus;whiteSpace=wrap;html=1;" vertex="1" parent="1">
          <mxGeometry x="310" y="500" width="80" height="80" as="geometry" />
        </mxCell>
        <mxCell id="ntS3S_vRTbsPisqW7kcb-29" value="num1=num1-num2" style="whiteSpace=wrap;html=1;" vertex="1" parent="1">
          <mxGeometry x="480" y="510" width="120" height="60" as="geometry" />
        </mxCell>
        <mxCell id="ntS3S_vRTbsPisqW7kcb-32" value="num2=num2-num1" style="whiteSpace=wrap;html=1;" vertex="1" parent="1">
          <mxGeometry x="290" y="640" width="120" height="60" as="geometry" />
        </mxCell>
        <mxCell id="ntS3S_vRTbsPisqW7kcb-37" value="" style="edgeStyle=orthogonalEdgeStyle;rounded=0;orthogonalLoop=1;jettySize=auto;html=1;" edge="1" parent="1" source="ntS3S_vRTbsPisqW7kcb-35" target="ntS3S_vRTbsPisqW7kcb-36">
          <mxGeometry relative="1" as="geometry" />
        </mxCell>
        <mxCell id="ntS3S_vRTbsPisqW7kcb-38" value="True" style="edgeLabel;html=1;align=center;verticalAlign=middle;resizable=0;points=[];" vertex="1" connectable="0" parent="ntS3S_vRTbsPisqW7kcb-37">
          <mxGeometry x="-0.181" relative="1" as="geometry">
            <mxPoint as="offset" />
          </mxGeometry>
        </mxCell>
        <mxCell id="ntS3S_vRTbsPisqW7kcb-36" value="num1" style="shape=parallelogram;perimeter=parallelogramPerimeter;whiteSpace=wrap;html=1;fixedSize=1;" vertex="1" parent="1">
          <mxGeometry x="450" y="370" width="120" height="60" as="geometry" />
        </mxCell>
        <mxCell id="ntS3S_vRTbsPisqW7kcb-40" value="" style="endArrow=classic;html=1;rounded=0;exitX=0;exitY=0.5;exitDx=0;exitDy=0;" edge="1" parent="1" source="ntS3S_vRTbsPisqW7kcb-32">
          <mxGeometry width="50" height="50" relative="1" as="geometry">
            <mxPoint x="270" y="670" as="sourcePoint" />
            <mxPoint x="350" y="340" as="targetPoint" />
            <Array as="points">
              <mxPoint x="220" y="670" />
              <mxPoint x="220" y="340" />
              <mxPoint x="330" y="340" />
            </Array>
          </mxGeometry>
        </mxCell>
        <mxCell id="ntS3S_vRTbsPisqW7kcb-41" value="" style="edgeStyle=orthogonalEdgeStyle;rounded=0;orthogonalLoop=1;jettySize=auto;html=1;" edge="1" parent="1" source="ntS3S_vRTbsPisqW7kcb-25" target="ntS3S_vRTbsPisqW7kcb-35">
          <mxGeometry relative="1" as="geometry">
            <mxPoint x="350" y="320" as="sourcePoint" />
            <mxPoint x="350" y="470" as="targetPoint" />
          </mxGeometry>
        </mxCell>
        <mxCell id="ntS3S_vRTbsPisqW7kcb-35" value="num1=num2" style="rhombus;whiteSpace=wrap;html=1;" vertex="1" parent="1">
          <mxGeometry x="310" y="360" width="80" height="80" as="geometry" />
        </mxCell>
        <mxCell id="ntS3S_vRTbsPisqW7kcb-43" value="" style="endArrow=classic;html=1;rounded=0;exitX=0.85;exitY=-0.039;exitDx=0;exitDy=0;exitPerimeter=0;" edge="1" parent="1" source="ntS3S_vRTbsPisqW7kcb-29">
          <mxGeometry width="50" height="50" relative="1" as="geometry">
            <mxPoint x="380" y="480" as="sourcePoint" />
            <mxPoint x="350" y="340" as="targetPoint" />
            <Array as="points">
              <mxPoint x="580" y="340" />
            </Array>
          </mxGeometry>
        </mxCell>
        <mxCell id="ntS3S_vRTbsPisqW7kcb-44" value="end" style="ellipse;whiteSpace=wrap;html=1;" vertex="1" parent="1">
          <mxGeometry x="290" y="-340" width="120" height="80" as="geometry" />
        </mxCell>
        <mxCell id="ntS3S_vRTbsPisqW7kcb-45" value="" style="endArrow=classic;html=1;rounded=0;entryX=0.5;entryY=1;entryDx=0;entryDy=0;exitX=0.367;exitY=-0.006;exitDx=0;exitDy=0;exitPerimeter=0;" edge="1" parent="1" source="ntS3S_vRTbsPisqW7kcb-17" target="ntS3S_vRTbsPisqW7kcb-44">
          <mxGeometry width="50" height="50" relative="1" as="geometry">
            <mxPoint x="380" y="-120" as="sourcePoint" />
            <mxPoint x="430" y="-170" as="targetPoint" />
          </mxGeometry>
        </mxCell>
        <mxCell id="ntS3S_vRTbsPisqW7kcb-47" value="" style="endArrow=classic;html=1;rounded=0;exitX=0.583;exitY=0;exitDx=0;exitDy=0;exitPerimeter=0;" edge="1" parent="1" source="ntS3S_vRTbsPisqW7kcb-21">
          <mxGeometry width="50" height="50" relative="1" as="geometry">
            <mxPoint x="380" y="-120" as="sourcePoint" />
            <mxPoint x="350" y="-260" as="targetPoint" />
          </mxGeometry>
        </mxCell>
        <mxCell id="ntS3S_vRTbsPisqW7kcb-49" value="end" style="ellipse;whiteSpace=wrap;html=1;" vertex="1" parent="1">
          <mxGeometry x="80" y="520" width="120" height="80" as="geometry" />
        </mxCell>
        <mxCell id="ntS3S_vRTbsPisqW7kcb-51" value="end" style="ellipse;whiteSpace=wrap;html=1;" vertex="1" parent="1">
          <mxGeometry x="670" y="250" width="120" height="80" as="geometry" />
        </mxCell>
        <mxCell id="ntS3S_vRTbsPisqW7kcb-53" value="" style="endArrow=classic;html=1;rounded=0;entryX=0;entryY=0.5;entryDx=0;entryDy=0;" edge="1" parent="1" source="ntS3S_vRTbsPisqW7kcb-36" target="ntS3S_vRTbsPisqW7kcb-51">
          <mxGeometry width="50" height="50" relative="1" as="geometry">
            <mxPoint x="380" y="380" as="sourcePoint" />
            <mxPoint x="430" y="330" as="targetPoint" />
          </mxGeometry>
        </mxCell>
      </root>
    </mxGraphModel>
  </diagram>
</mxfile>
